# xmcd CD database file
#
# Track frame offsets:
#	150
#	20417
#	37655
#
# Disc length: 719 seconds
#
# Revision: 0
# Processed by: cddbd v1.5PL3 Copyright (c) Steve Scherf et al.
# Submitted via: CDex 1.51
#
DISCID=1402cd03
DTITLE=TRICERATOPS - GROOVE WALK
DYEAR=2000
DGENRE=Rock
TTITLE0=GROOVE WALK
TTITLE1=LET ME OUT
TTITLE2=SUN AND STARS
EXTD=YEAR: 2000
EXTT0=
EXTT1=
EXTT2=
PLAYORDER=
